<svg width="665" height="673" viewBox="0 0 665 673" fill="none" xmlns="http://www.w3.org/2000/svg">
<path d="M333.75 164.5C373.929 164.5 406.5 131.929 406.5 91.75C406.5 51.5713 373.929 19 333.75 19C293.571 19 261 51.5713 261 91.75C261 131.929 293.571 164.5 333.75 164.5Z" stroke="black" stroke-width="37.5"/>
<path d="M572.625 416.625C612.804 416.625 645.375 384.054 645.375 343.875C645.375 303.696 612.804 271.125 572.625 271.125C532.446 271.125 499.875 303.696 499.875 343.875C499.875 384.054 532.446 416.625 572.625 416.625Z" stroke="black" stroke-width="37.5"/>
<path d="M333.75 653.75C373.929 653.75 406.5 621.179 406.5 581C406.5 540.821 373.929 508.25 333.75 508.25C293.571 508.25 261 540.821 261 581C261 621.179 293.571 653.75 333.75 653.75Z" stroke="black" stroke-width="37.5"/>
<path d="M91.75 547C131.929 547 164.5 514.429 164.5 474.25C164.5 434.071 131.929 401.5 91.75 401.5C51.5713 401.5 19 434.071 19 474.25C19 514.429 51.5713 547 91.75 547Z" stroke="black" stroke-width="37.5"/>
<path d="M91.75 262.5C131.929 262.5 164.5 229.929 164.5 189.75C164.5 149.571 131.929 117 91.75 117C51.5713 117 19 149.571 19 189.75C19 229.929 51.5713 262.5 91.75 262.5Z" stroke="black" stroke-width="37.5"/>
<path d="M333.625 373.5C366.072 373.5 392.375 347.197 392.375 314.75C392.375 282.303 366.072 256 333.625 256C301.178 256 274.875 282.303 274.875 314.75C274.875 347.197 301.178 373.5 333.625 373.5Z" stroke="black" stroke-width="37.5"/>
<path d="M154.375 152.625L263.5 110.5" stroke="black" stroke-width="37.5"/>
<path d="M384.75 143.75L520.75 292.875" stroke="black" stroke-width="37.5"/>
<path d="M528.125 401.375L385.625 530" stroke="black" stroke-width="37.5"/>
<path d="M131.75 250.5L288.625 524" stroke="black" stroke-width="37.5"/>
<path d="M156.125 508.125L261 556.75" stroke="black" stroke-width="37.5"/>
<path d="M119 406.75L294.375 152.875" stroke="black" stroke-width="37.5"/>
<path d="M158.75 218.25L281.5 287.625" stroke="black" stroke-width="37.5"/>
<path d="M392.5 321.375L499.875 329.5" stroke="black" stroke-width="37.5"/>
<path d="M333.625 373.625L333.75 508.125" stroke="black" stroke-width="37.5"/>
</svg>
